<mxfile host="app.diagrams.net" modified="2024-04-22T08:53:18.645Z" agent="Mozilla/5.0 (Windows NT 10.0; Win64; x64) AppleWebKit/537.36 (KHTML, like Gecko) Chrome/123.0.0.0 Safari/537.36" etag="qPtwhy-8kw9dp7Q4bR1u" version="24.2.7" type="github">
  <diagram name="Pagina-1" id="q5kxWiuMt2XL6_3oOD6i">
    <mxGraphModel dx="1114" dy="600" grid="1" gridSize="10" guides="1" tooltips="1" connect="1" arrows="1" fold="1" page="1" pageScale="1" pageWidth="827" pageHeight="1169" math="0" shadow="0">
      <root>
        <mxCell id="0" />
        <mxCell id="1" parent="0" />
        <mxCell id="5LyaFHgGuzO7SmeTVH7B-1" value="Start" style="ellipse;whiteSpace=wrap;html=1;" vertex="1" parent="1">
          <mxGeometry x="70" y="10" width="120" height="80" as="geometry" />
        </mxCell>
        <mxCell id="5LyaFHgGuzO7SmeTVH7B-2" value="Aggiunge libri" style="rounded=0;whiteSpace=wrap;html=1;" vertex="1" parent="1">
          <mxGeometry x="70" y="350" width="120" height="60" as="geometry" />
        </mxCell>
        <mxCell id="5LyaFHgGuzO7SmeTVH7B-3" value="Legge file Libri" style="rounded=0;whiteSpace=wrap;html=1;" vertex="1" parent="1">
          <mxGeometry x="70" y="130" width="120" height="60" as="geometry" />
        </mxCell>
        <mxCell id="5LyaFHgGuzO7SmeTVH7B-4" value="Salva file ElencoLibri" style="shape=document;whiteSpace=wrap;html=1;boundedLbl=1;" vertex="1" parent="1">
          <mxGeometry x="70" y="450" width="120" height="80" as="geometry" />
        </mxCell>
        <mxCell id="5LyaFHgGuzO7SmeTVH7B-5" value="End" style="ellipse;whiteSpace=wrap;html=1;" vertex="1" parent="1">
          <mxGeometry x="70" y="560" width="120" height="80" as="geometry" />
        </mxCell>
        <mxCell id="5LyaFHgGuzO7SmeTVH7B-6" value="" style="endArrow=classic;html=1;rounded=0;exitX=0.5;exitY=1;exitDx=0;exitDy=0;entryX=0.5;entryY=0;entryDx=0;entryDy=0;" edge="1" parent="1" source="5LyaFHgGuzO7SmeTVH7B-1" target="5LyaFHgGuzO7SmeTVH7B-3">
          <mxGeometry width="50" height="50" relative="1" as="geometry">
            <mxPoint x="390" y="340" as="sourcePoint" />
            <mxPoint x="440" y="290" as="targetPoint" />
          </mxGeometry>
        </mxCell>
        <mxCell id="5LyaFHgGuzO7SmeTVH7B-7" value="" style="endArrow=classic;html=1;rounded=0;exitX=0.5;exitY=1;exitDx=0;exitDy=0;entryX=0.5;entryY=0;entryDx=0;entryDy=0;" edge="1" parent="1">
          <mxGeometry width="50" height="50" relative="1" as="geometry">
            <mxPoint x="129.5" y="190" as="sourcePoint" />
            <mxPoint x="129.5" y="230" as="targetPoint" />
          </mxGeometry>
        </mxCell>
        <mxCell id="5LyaFHgGuzO7SmeTVH7B-10" value="" style="endArrow=classic;html=1;rounded=0;exitX=0.5;exitY=1;exitDx=0;exitDy=0;entryX=0.5;entryY=0;entryDx=0;entryDy=0;" edge="1" parent="1">
          <mxGeometry width="50" height="50" relative="1" as="geometry">
            <mxPoint x="129.5" y="410" as="sourcePoint" />
            <mxPoint x="129.5" y="450" as="targetPoint" />
          </mxGeometry>
        </mxCell>
        <mxCell id="5LyaFHgGuzO7SmeTVH7B-11" value="" style="endArrow=classic;html=1;rounded=0;exitX=0.5;exitY=1;exitDx=0;exitDy=0;entryX=0.5;entryY=0;entryDx=0;entryDy=0;" edge="1" parent="1">
          <mxGeometry width="50" height="50" relative="1" as="geometry">
            <mxPoint x="130" y="520" as="sourcePoint" />
            <mxPoint x="130" y="560" as="targetPoint" />
          </mxGeometry>
        </mxCell>
        <mxCell id="5LyaFHgGuzO7SmeTVH7B-12" value="Il file è vuoto" style="rhombus;whiteSpace=wrap;html=1;" vertex="1" parent="1">
          <mxGeometry x="90" y="230" width="80" height="80" as="geometry" />
        </mxCell>
        <mxCell id="5LyaFHgGuzO7SmeTVH7B-13" value="" style="endArrow=classic;html=1;rounded=0;exitX=0.5;exitY=1;exitDx=0;exitDy=0;entryX=0.5;entryY=0;entryDx=0;entryDy=0;" edge="1" parent="1">
          <mxGeometry width="50" height="50" relative="1" as="geometry">
            <mxPoint x="129.5" y="310" as="sourcePoint" />
            <mxPoint x="129.5" y="350" as="targetPoint" />
          </mxGeometry>
        </mxCell>
        <mxCell id="5LyaFHgGuzO7SmeTVH7B-14" value="Sì" style="edgeLabel;html=1;align=center;verticalAlign=middle;resizable=0;points=[];" vertex="1" connectable="0" parent="5LyaFHgGuzO7SmeTVH7B-13">
          <mxGeometry x="-0.05" relative="1" as="geometry">
            <mxPoint as="offset" />
          </mxGeometry>
        </mxCell>
        <mxCell id="5LyaFHgGuzO7SmeTVH7B-15" value="Preleva il massimo id" style="rounded=0;whiteSpace=wrap;html=1;" vertex="1" parent="1">
          <mxGeometry x="270" y="290" width="120" height="60" as="geometry" />
        </mxCell>
        <mxCell id="5LyaFHgGuzO7SmeTVH7B-16" value="" style="endArrow=classic;html=1;rounded=0;exitX=1;exitY=0.5;exitDx=0;exitDy=0;entryX=0.45;entryY=0;entryDx=0;entryDy=0;entryPerimeter=0;" edge="1" parent="1" source="5LyaFHgGuzO7SmeTVH7B-12" target="5LyaFHgGuzO7SmeTVH7B-15">
          <mxGeometry width="50" height="50" relative="1" as="geometry">
            <mxPoint x="390" y="340" as="sourcePoint" />
            <mxPoint x="440" y="290" as="targetPoint" />
            <Array as="points">
              <mxPoint x="324" y="270" />
            </Array>
          </mxGeometry>
        </mxCell>
        <mxCell id="5LyaFHgGuzO7SmeTVH7B-17" value="No" style="edgeLabel;html=1;align=center;verticalAlign=middle;resizable=0;points=[];" vertex="1" connectable="0" parent="5LyaFHgGuzO7SmeTVH7B-16">
          <mxGeometry x="-0.1954" relative="1" as="geometry">
            <mxPoint as="offset" />
          </mxGeometry>
        </mxCell>
        <mxCell id="5LyaFHgGuzO7SmeTVH7B-18" value="" style="endArrow=classic;html=1;rounded=0;exitX=0.5;exitY=1;exitDx=0;exitDy=0;entryX=1;entryY=0.5;entryDx=0;entryDy=0;" edge="1" parent="1" source="5LyaFHgGuzO7SmeTVH7B-15" target="5LyaFHgGuzO7SmeTVH7B-2">
          <mxGeometry width="50" height="50" relative="1" as="geometry">
            <mxPoint x="390" y="340" as="sourcePoint" />
            <mxPoint x="440" y="290" as="targetPoint" />
            <Array as="points">
              <mxPoint x="330" y="380" />
            </Array>
          </mxGeometry>
        </mxCell>
      </root>
    </mxGraphModel>
  </diagram>
</mxfile>
